<svg xmlns="http://www.w3.org/2000/svg" viewBox="0 0 128 128" role="img">
  <circle cx="64" cy="64" r="64" fill="#0d1117"/>
  <path fill="#f8f6ef" d="M64 28c-18.7 0-34 15.3-34 34 0 15 9.7 27.7 23.2 32.2 1.7.3 2.3-.7 2.3-1.6 0-.8 0-3 0-5.8-9.4 2-11.4-4.5-11.4-4.5-1.5-3.7-3.6-4.7-3.6-4.7-3-2 .2-2 .2-2 3.4.2 5.2 3.5 5.2 3.5 3 5.1 7.9 3.6 9.8 2.8.3-2.2 1.2-3.6 2.1-4.4-7.5-.9-15.3-3.7-15.3-16.6 0-3.7 1.3-6.7 3.5-9.1-.4-.9-1.5-4.4.3-9.1 0 0 2.8-.9 9.3 3.5a32 32 0 0 1 17 0c6.5-4.4 9.3-3.5 9.3-3.5 1.8 4.7.7 8.2.3 9.1 2.2 2.4 3.5 5.4 3.5 9.1 0 13-7.8 15.7-15.3 16.6 1.2 1 2.3 3 2.3 6 0 4.3 0 7.8 0 8.9 0 .9.6 2 2.3 1.6C88.3 89.7 98 77 98 62c0-18.7-15.3-34-34-34Z"/>
</svg>
